<?xml version="1.0" encoding="iso-8859-1"?>
<!-- Generator: Adobe Illustrator 21.0.0, SVG Export Plug-In . SVG Version: 6.00 Build 0)  -->
<svg version="1.1" id="Capa_1" xmlns="http://www.w3.org/2000/svg" x="0px" y="0px"
     viewBox="0 0 512 512" style="enable-background:new 0 0 512 512;" xml:space="preserve">
<g>
	<g transform="translate(1 1)">
		<path style="fill:#BFA885;" d="M181.642,425.667h-18.005c-14.138,0-25.6-11.462-25.6-25.6c0-14.138,11.462-25.6,25.6-25.6h-25.6
			c-14.138,0-25.6-11.462-25.6-25.6c0-14.138,11.462-25.6,25.6-25.6h119.467v42.667L181.642,425.667z"/>
		<path style="fill:#AD1457;" d="M334.303,24.6v281.6c0.009,3.038-0.818,6.019-2.389,8.619l-91.477,8.448H146.57
			c-9.414-0.028-17.039-7.653-17.067-17.067V24.6c0.028-9.414,7.653-17.039,17.067-17.067h170.667
			C326.651,7.561,334.275,15.186,334.303,24.6z"/>
		<path style="fill:#E91E63;" d="M308.703,24.6v281.6c0.009,3.038-0.818,6.019-2.389,8.619l-91.477,8.448H146.57
			c-9.414-0.028-17.039-7.653-17.067-17.067V24.6c0.028-9.414,7.653-17.039,17.067-17.067h145.067
			C301.051,7.561,308.675,15.186,308.703,24.6z"/>
		<path style="fill:#FFE0B2;" d="M334.303,255v35.703c-0.001,2.141-1.589,3.95-3.712,4.228c-2.123,0.279-4.123-1.059-4.677-3.127
			l-25.745-96.538l-19.541-63.744c-3.465-12.354-15.541-20.235-28.245-18.432l-6.059,0.853
			c-17.521,2.473-29.824,18.536-27.648,36.096c5.461,45.227,15.787,126.123,21.76,156.16c1.082,5.65,0.966,11.464-0.341,17.067
			c-3.755,17.067-16.64,34.133-29.525,51.2c-12.885,17.067-25.6,34.133-28.928,51.2c-0.607,2.804-0.922,5.664-0.939,8.533
			c-0.149,25.129,8.965,49.432,25.6,68.267h136.533l51.371-146.859c5.344-15.23,4.298-31.975-2.901-46.421l-57.003-113.92V255z"/>
		<path style="fill:#BFA885;" d="M394.208,355.608l-51.371,146.859h-29.184l51.371-146.859c5.344-15.23,4.298-31.975-2.901-46.421
			l-27.819-55.637v-58.283l57.003,113.92C398.505,323.633,399.552,340.378,394.208,355.608z"/>
	</g>
	<g>
		<path d="M135.427,383.633c-3.198,5.255-4.9,11.283-4.924,17.434c0,18.851,15.282,34.133,34.133,34.133h8.533
			c-0.19,27.398,9.827,53.885,28.1,74.3c1.6,1.6,3.77,2.5,6.033,2.5h136.533c3.627,0,6.858-2.293,8.055-5.717l51.354-146.825
			c6.095-17.418,4.901-36.56-3.311-53.086l-56.098-112.119V25.6c0-14.138-11.461-25.6-25.6-25.6H147.57
			c-14.138,0-25.6,11.462-25.6,25.6v281.6c0.026,4.075,1.039,8.084,2.953,11.682c-14.006,6.312-22.031,21.239-19.571,36.403
			C107.812,370.449,120.145,382.073,135.427,383.633z M384.66,314.027c6.161,12.392,7.057,26.747,2.483,39.808l-49.365,141.099
			H211.161c-13.515-16.98-20.889-38.032-20.924-59.733c0.016-2.323,0.279-4.637,0.785-6.903
			c3.004-15.428,15.36-31.829,27.358-47.684c12.8-16.956,25.933-34.466,30.524-52.642c0.556-1.156,0.847-2.421,0.853-3.703v-0.128
			c1.182-6.145,1.182-12.458,0-18.603c-5.41-27.23-15.044-100.796-21.658-155.563c-1.655-12.967,7.465-24.839,20.42-26.581
			l6.059-0.853c8.459-1.153,16.481,4.081,18.833,12.288l51.294,183.322l2.389,8.448c1.042,3.671,4.393,6.204,8.209,6.204h8.533
			c4.713,0,8.533-3.82,8.533-8.533s-3.821-8.533-8.533-8.533h-1.707c1.066-2.722,1.643-5.611,1.707-8.533v-74.803L384.66,314.027z
			 M139.037,25.6c0-4.713,3.821-8.533,8.533-8.533h170.667c4.713,0,8.533,3.821,8.533,8.533v236.587l-36.932-131.994
			c-4.694-16.407-20.734-26.868-37.641-24.55l-6.101,0.853c-22.029,3.266-37.48,23.44-34.893,45.559
			c2.406,19.917,14.763,121.079,21.862,156.757c0.431,2.277,0.612,4.595,0.538,6.912H147.57c-4.713,0-8.533-3.82-8.533-8.533V25.6z
			 M126.979,337.809c3.189-3.213,7.531-5.017,12.058-5.009l90.172,0c-6.775,13.362-14.978,25.951-24.465,37.547
			c-12.082,14.274-21.77,30.412-28.689,47.787h-11.418c-9.426,0-17.067-7.641-17.067-17.067S155.211,384,164.637,384h8.533
			c4.713,0,8.533-3.821,8.533-8.533c0-4.713-3.82-8.533-8.533-8.533h-34.133c-6.896-0.008-13.11-4.166-15.748-10.538
			C120.651,350.023,122.107,342.69,126.979,337.809z"/>
		<path d="M164.637,110.933c4.713,0,8.533-3.821,8.533-8.533V51.2h42.667c4.713,0,8.533-3.821,8.533-8.533s-3.821-8.533-8.533-8.533
			H173.17c-9.426,0-17.067,7.641-17.067,17.067v51.2C156.103,107.113,159.924,110.933,164.637,110.933z"/>
		<path d="M249.97,51.2h25.6c4.713,0,8.533-3.821,8.533-8.533s-3.82-8.533-8.533-8.533h-25.6c-4.713,0-8.533,3.821-8.533,8.533
			S245.257,51.2,249.97,51.2z"/>
		<path d="M164.637,162.133c4.713,0,8.533-3.821,8.533-8.533v-17.067c0-4.713-3.82-8.533-8.533-8.533s-8.533,3.821-8.533,8.533
			V153.6C156.103,158.313,159.924,162.133,164.637,162.133z"/>
	</g>
</g>
<g>
</g>
<g>
</g>
<g>
</g>
<g>
</g>
<g>
</g>
<g>
</g>
<g>
</g>
<g>
</g>
<g>
</g>
<g>
</g>
<g>
</g>
<g>
</g>
<g>
</g>
<g>
</g>
<g>
</g>
</svg>
