<?xml version="1.0" encoding="iso-8859-1"?>
<!-- Generator: Adobe Illustrator 19.0.0, SVG Export Plug-In . SVG Version: 6.00 Build 0)  -->
<svg version="1.1" id="Layer_1" xmlns="http://www.w3.org/2000/svg" x="0px" y="0px"
     viewBox="0 0 512 512" style="enable-background:new 0 0 512 512;" xml:space="preserve">
<g>
	<g>
		<g>
			<path d="M235.439,43.973h41.705c4.466,0,8.084-3.62,8.084-8.084c0-4.465-3.618-8.084-8.084-8.084h-41.705
				c-4.466,0-8.084,3.62-8.084,8.084C227.355,40.353,230.973,43.973,235.439,43.973z"/>
			<path d="M496.713,192.694L468.896,78.087c-0.276-1.134-7.042-27.908-33.642-39.213C416,30.692,355.108,7.575,339.862,1.802
				C338.473,0.677,336.705,0,334.778,0h-1.158H178.382c-0.259,0-0.516,0.014-0.774,0.039c-0.111,0.011-0.22,0.03-0.33,0.045
				c-0.141,0.019-0.282,0.038-0.423,0.065c-0.131,0.025-0.26,0.058-0.389,0.089c-0.115,0.028-0.231,0.056-0.346,0.088
				c-0.134,0.039-0.264,0.084-0.396,0.129c-0.067,0.024-0.135,0.041-0.202,0.066c-3.14,1.187-77.172,29.171-98.776,38.353
				C51.172,49.744,43.936,74.9,43.171,77.83c0,0.001,0,0.002-0.001,0.003c-0.014,0.055-0.025,0.098-0.036,0.137
				c-0.014,0.053-0.024,0.095-0.029,0.115L23.337,159.53c0,0,0,0,0,0.001l-8.05,33.164c-0.951,3.915,1.127,7.932,4.872,9.42
				l79.47,31.57v237.366v32.865c0,4.466,3.619,8.084,8.084,8.084h296.573c4.466,0,8.084-3.618,8.084-8.084v-32.865V317.128
				c0-4.465-3.618-8.084-8.084-8.084c-4.466,0-8.084,3.62-8.084,8.084v145.838H197.52c-4.466,0-8.084,3.619-8.084,8.084
				c0,4.465,3.618,8.084,8.084,8.084h198.683v16.697H115.799v-16.697h54.774c4.466,0,8.084-3.62,8.084-8.084
				c0-4.466-3.618-8.084-8.084-8.084h-54.774v-234.77V193.53v-62.644c0-1.475-0.403-2.921-1.166-4.183L73.863,59.278
				c2.632-2.115,5.683-4.024,9.21-5.523c16.551-7.034,66.181-25.968,87.853-34.198c5.199,47.777,42.306,86.201,85.655,86.201
				c43.22,0,80.24-38.198,85.611-85.779c22.215,8.44,70.465,26.859,86.739,33.775c3.527,1.499,6.577,3.408,9.21,5.523
				l-40.769,67.424c-0.763,1.262-1.166,2.709-1.166,4.183v62.644v34.667v61.985c0,4.466,3.619,8.084,8.084,8.084
				c4.466,0,8.084-3.618,8.084-8.084v-56.498l79.47-31.57C495.585,200.626,497.663,196.609,496.713,192.694z M99.631,216.286
				L32.658,189.68l4.156-17.12l62.816,26.345V216.286z M99.631,133.139v48.233l-58.954-24.725l18.134-74.711
				c0.023-0.091,1.124-4.26,4.094-9.534L99.631,133.139z M256.58,89.589c-31.953,0-66.037-29.165-69.775-73.421h139.552
				C322.617,60.425,288.533,89.589,256.58,89.589z M412.372,133.139L449.099,72.4c1.945,3.453,3.09,6.431,3.65,8.091
				c0.001,0.005,0.003,0.01,0.005,0.015c0.053,0.157,0.099,0.3,0.142,0.432c0.008,0.025,0.016,0.051,0.024,0.075
				c0.033,0.105,0.063,0.199,0.089,0.286c0.011,0.033,0.022,0.07,0.031,0.101c0.022,0.071,0.04,0.134,0.056,0.19
				c0.008,0.026,0.016,0.057,0.023,0.08c0.013,0.045,0.023,0.08,0.031,0.112c0.005,0.019,0.013,0.045,0.017,0.06
				c0.008,0.028,0.014,0.054,0.015,0.058l18.143,74.748l-58.954,24.725V133.139z M412.372,216.286v-17.381l62.816-26.345
				l4.155,17.121L412.372,216.286z"/>
		</g>
	</g>
</g>
<g>
</g>
<g>
</g>
<g>
</g>
<g>
</g>
<g>
</g>
<g>
</g>
<g>
</g>
<g>
</g>
<g>
</g>
<g>
</g>
<g>
</g>
<g>
</g>
<g>
</g>
<g>
</g>
<g>
</g>
</svg>
